<svg id="圖層_1" data-name="圖層 1" xmlns="http://www.w3.org/2000/svg" viewBox="0 0 99.21 99.21"><defs><style>.cls-1,.cls-3{fill:#fff;}.cls-2{fill:#231815;}.cls-3{font-size:11.45px;font-family:Montserrat-SemiBold, Montserrat;font-weight:600;}</style></defs><title>hurley-furniture-2</title><polygon class="cls-1" points="64.56 49.94 57.97 35.11 41.24 35.11 34.65 49.94 64.56 49.94"/><path class="cls-1" d="M57.66,58.06a8,8,0,0,1-16.1,0c0-4.45,8-13,8-13S57.66,53.61,57.66,58.06Z"/><path class="cls-2" d="M53.65,49.94a63,63,0,0,0-4-4.83,61.69,61.69,0,0,0-4,4.83Z"/><text class="cls-3" transform="translate(24.78 31.5) rotate(-45.21)">H</text><text class="cls-3" transform="matrix(0.91, -0.42, 0.42, 0.91, 32.68, 23.98)">U</text><text class="cls-3" transform="translate(42.5 19.77) rotate(-5.48)">R</text><text class="cls-3" transform="translate(52.56 19.18) rotate(11.92)">L</text><text class="cls-3" transform="translate(60.93 21.15) rotate(28.95)">E</text><text class="cls-3" transform="translate(68.95 25.88) rotate(46.28)">Y</text><text class="cls-3" transform="translate(12.06 60.74) rotate(68.13)">F</text><text class="cls-3" transform="translate(16.66 70.92) rotate(50.47)">U</text><text class="cls-3" transform="translate(25.45 80.48) rotate(31.97)">R</text><text class="cls-3" transform="translate(36.26 86.53) rotate(13.04)">N</text><text class="cls-3" transform="translate(48.94 88.62) rotate(-1.68)">I</text><text class="cls-3" transform="matrix(0.97, -0.25, 0.25, 0.97, 56.01, 88.21)">T</text><text class="cls-3" transform="matrix(0.85, -0.52, 0.52, 0.85, 66.17, 85.19)">U</text><text class="cls-3" transform="matrix(0.64, -0.77, 0.77, 0.64, 76.85, 77.79)">R</text><text class="cls-3" transform="matrix(0.38, -0.92, 0.92, 0.38, 84.18, 68.02)">E</text><circle class="cls-1" cx="15.16" cy="42.92" r="1.84"/><circle class="cls-1" cx="84.05" cy="42.92" r="1.84"/></svg>