<svg id="圖層_1" data-name="圖層 1" xmlns="http://www.w3.org/2000/svg" viewBox="0 0 99.21 99.21"><defs><style>.cls-1{fill:#231815;}</style></defs><title>hurley-furniture-2</title><path class="cls-1" d="M51.83,1,57,.18A13.62,13.62,0,0,1,67.9,3.1L72,6.44a13.75,13.75,0,0,0,3.86,2.22l4.92,1.85a13.62,13.62,0,0,1,8,8l1.85,4.93a13.59,13.59,0,0,0,2.23,3.85l3.34,4.07A13.63,13.63,0,0,1,99,42.19l-.86,5.19a13.84,13.84,0,0,0,0,4.45L99,57A13.65,13.65,0,0,1,96.12,67.9L92.78,72a13.78,13.78,0,0,0-2.23,3.86L88.7,80.74a13.6,13.6,0,0,1-8,8l-4.92,1.85A13.78,13.78,0,0,0,72,92.78L67.9,96.12A13.65,13.65,0,0,1,57,99l-5.19-.86a13.84,13.84,0,0,0-4.45,0L42.19,99a13.63,13.63,0,0,1-10.87-2.91l-4.07-3.34a13.59,13.59,0,0,0-3.85-2.23L18.47,88.7a13.62,13.62,0,0,1-8-8L8.66,75.82A13.75,13.75,0,0,0,6.44,72L3.1,67.9A13.62,13.62,0,0,1,.18,57L1,51.83a13.3,13.3,0,0,0,0-4.45L.18,42.19A13.6,13.6,0,0,1,3.1,31.32l3.34-4.07A13.56,13.56,0,0,0,8.66,23.4l1.85-4.93a13.65,13.65,0,0,1,8-8L23.4,8.66a13.56,13.56,0,0,0,3.85-2.22L31.32,3.1A13.6,13.6,0,0,1,42.19.18L47.38,1A13.3,13.3,0,0,0,51.83,1Z"/></svg>